From Paris with Love DVDRip XviD-DiAMOND    
http://thepiratebay.org/torrent/5590156/From_Paris_with_Love_DVDRip_XviD-DiAMOND

From Paris with Love (2010) R5 DVDRip XviD-MAX

Format                           : AVI
Format/Info                      : Audio Video Interleave
Format profile                   : OpenDML
File size                        : 801 MiB
Duration                         : 1h 27mn
Overall bit rate                 : 1 282 Kbps
Writing application              : VirtualDubMod 1.5.10.2 (build 2542/release)
Writing library                  : VirtualDubMod build 2542/release
Original source form             : MAX TORRENTZ
Copyright                        : SIGISMUNT

Video
Format                           : xvid
Codec ID                         : xvid
Duration                         : 1h 27mn
Bit rate                         : 1 150 Kbps 
Width                            : 720 pixels
Height                           : 304 pixels
Display aspect ratio             : 2.35:1
Frame rate                       : 25.000 fps 
Resolution                       : 24 bits
Bits/(Pixel*Frame)               : 0.210
Stream size                      : 719 MiB (90%)

Audio
ID                               : 1
Format                           : MPEG Audio
Format version                   : Version 1
Format profile                   : Layer 3
Codec ID                         : 55
Codec ID/Hint                    : MP3
Duration                         : 1h 27mn
Bit rate mode                    : Constant
Bit rate                         : 128 Kbps
Channel(s)                       : 2 channels
Sampling rate                    : 48.0 KHz
Resolution                       : 16 bits
Stream size                      : 80.0 MiB (10%)
Alignment                        : Aligned on interleaves
Interleave, duration             : 667 ms (16.69 video frames)
Interleave, preload duration     : 216 ms

Encode Note:

Original R5 DVDRip videosource , clear MENTiON audio source perfectly synced (-100ms) 
http://www.imdb.com/title/tt1179034/

Screens: 
http://www.postimg.com/image/12000/11580.jpg 
http://www.postimg.com/image/12000/11581.jpg 
http://www.postimg.com/image/12000/11582.jpg 
http://www.postimg.com/image/12000/11583.jpg 
http://www.postimg.com/image/12000/11584.jpg

ScreenCaps: 
http://www.postimg.com/image/12000/11585.jpg

From Paris with Love (2010) R5 DVDRip XviD-MAX Torrent Free Download 
http://thepiratebay.org/user/extremezone/0/7

How To Get Your Maxspeed (uTorrent)

Torrent Client - Preferences - Bandwidth - Number of connections - Set aprox. 500 for each 
Torrent Client - Preferences - BiTorrent - Protocol Encryption - Forced
Bandwidth Allocation - High (Set download/upload limit - Unlimited)
Stop Other Active Torrents - Enjoy and Seed at least 1:1 ratio